<svg width="512" height="512" viewBox="0 0 389 389" fill="none" xmlns="http://www.w3.org/2000/svg">
  <g transform="translate(12 0)">
    <path
      fill="#FF0814"
      fill-rule="evenodd"
      clip-rule="evenodd"
      d="M281 141L279 141L279 146L290 152L279 158L279 164L297 154L297 150Z M250 141L232 150L232 155L249 164L250 158L239 152L250 146Z M272 135L268 135L266 138L256 169L261 169Z M166 0L63 57L62 169L24 169L23 163L20 161L2 161L0 163L1 183L21 183L23 181L24 175L61 175L63 177L63 196L61 205L24 205L22 197L0 198L1 218L22 218L24 210L61 210L63 212L62 239L24 240L23 234L21 232L1 232L0 252L22 253L24 245L61 245L63 247L62 292L101 314L222 314L276 282L237 261L115 260L115 85L166 57Z M6 238L16 237L17 247L6 248Z M6 203L16 202L17 212L7 213Z M6 167L16 167L17 177L7 178Z"
    />
    <path
      fill="#FFFFFF"
      fill-rule="evenodd"
      clip-rule="evenodd"
      d="M259 47L253 49L143 111L143 189L145 191L312 278L312 281L307 285L229 331L131 331L227 388L240 382L365 309L365 245L197 160L197 137L200 134L254 104L258 103L328 143L365 162L365 110Z"
    />
  </g>
</svg>
